<svg xmlns="http://www.w3.org/2000/svg" width="181.852" height="63.881" viewBox="0 0 181.852 63.881">
  <g id="Grupo_75" data-name="Grupo 75" transform="translate(-552.148 -667)">
    <path id="Unión_1" data-name="Unión 1" d="M33.645,63.413a1.969,1.969,0,0,1-.39-1.146V31.8c0-.886.677-1.158,1.552-1.6l26.3-12.547a1.578,1.578,0,0,1,1.553,1.6V50.178c0,.885-.624,1.195-1.553,1.6L35.171,63.7a1.638,1.638,0,0,1-.674.177A1.164,1.164,0,0,1,33.645,63.413ZM28.4,63.7,1.6,51.782c-.959-.409-1.6-.718-1.6-1.6V19.253a1.6,1.6,0,0,1,1.6-1.6L28.773,30.2c.9.446,1.6.718,1.6,1.6V62.267a1.923,1.923,0,0,1-.4,1.146,1.212,1.212,0,0,1-.88.468A1.737,1.737,0,0,1,28.4,63.7Zm1.59-35.985C23.524,25.05.918,15,.918,15a1.833,1.833,0,0,1,0-2.592L28.95.417a6.919,6.919,0,0,1,4.816.042l27.6,11.954a1.833,1.833,0,0,1,0,2.592s-21.5,10.138-27.937,12.8a3.79,3.79,0,0,1-1.622.446h-.047A4.607,4.607,0,0,1,29.987,27.719Z" transform="translate(552.148 667)" fill="#b4c7d2"/>
    <g id="Grupo_71" data-name="Grupo 71" transform="translate(623.706 675.167)">
      <text id="ZENIGA" transform="translate(0.294 27.833)" fill="#b4c7d2" font-size="29" font-family="Geometric415BT-BlackA, Geometr415 Blk BT" font-weight="800"><tspan x="0" y="0">ZENIGA</tspan></text>
      <text id="organize_and_grow" data-name="organize and grow" transform="translate(1.294 40.833)" fill="#b4c7d2" font-size="12.5" font-family="Geometric212BT-BookCondensed, Geometr212 BkCn BT"><tspan x="0" y="0">organize and grow</tspan></text>
    </g>
  </g>
</svg>
