<svg xmlns="http://www.w3.org/2000/svg" width="185.074" height="211.748" viewBox="0 0 185.074 211.748">
  <path id="mailinglists" d="M171.854,211.748H13.248a12.8,12.8,0,0,1-9.411-3.823,12.76,12.76,0,0,1-3.823-9.411V13.44A12.8,12.8,0,0,1,3.837,4.029,12.76,12.76,0,0,1,13.248.206h92.64V52.937H33.1A6.542,6.542,0,0,0,28.447,54.8a6.262,6.262,0,0,0-1.965,4.758V72.788A6.71,6.71,0,0,0,33.1,79.406l151.988.206v118.9a13.057,13.057,0,0,1-13.234,13.234Zm-6.617-99.257a6.455,6.455,0,0,0-1.859-4.758,6.154,6.154,0,0,0-4.547-1.859H33.106a6.542,6.542,0,0,0-4.653,1.859,6.262,6.262,0,0,0-1.965,4.758v13.234a6.71,6.71,0,0,0,6.617,6.617H158.831a6.019,6.019,0,0,0,4.547-1.965,6.542,6.542,0,0,0,1.859-4.653Zm0,52.731a6.542,6.542,0,0,0-1.859-4.653,6.019,6.019,0,0,0-4.547-1.965H33.106a6.71,6.71,0,0,0-6.617,6.617v13.234a6.274,6.274,0,0,0,1.965,4.758,6.509,6.509,0,0,0,4.653,1.859H158.831a6.184,6.184,0,0,0,4.547-1.859,6.443,6.443,0,0,0,1.859-4.758ZM119.122,0a12.378,12.378,0,0,1,9.1,3.723l52.937,53.143a12.955,12.955,0,0,1,3.929,9.511H119.122Z" transform="translate(-0.014)" fill="#a4a5a6"/>
</svg>
