<svg id="Componente_1_1" data-name="Componente 1 – 1" xmlns="http://www.w3.org/2000/svg" width="181.528" height="63.881" viewBox="0 0 181.528 63.881">
  <path id="Unión_2" data-name="Unión 2" d="M33.645,63.413a1.969,1.969,0,0,1-.39-1.146V31.8c0-.886.677-1.158,1.552-1.6l26.3-12.547a1.578,1.578,0,0,1,1.553,1.6V50.178c0,.885-.624,1.195-1.553,1.6L35.171,63.7a1.638,1.638,0,0,1-.674.177A1.164,1.164,0,0,1,33.645,63.413ZM28.4,63.7,1.6,51.782c-.959-.409-1.6-.718-1.6-1.6V19.253a1.6,1.6,0,0,1,1.6-1.6L28.773,30.2c.9.446,1.6.718,1.6,1.6V62.267a1.923,1.923,0,0,1-.4,1.146,1.212,1.212,0,0,1-.88.468A1.737,1.737,0,0,1,28.4,63.7Zm1.59-35.985C23.524,25.05.918,15,.918,15a1.833,1.833,0,0,1,0-2.592L28.95.417a6.919,6.919,0,0,1,4.816.042l27.6,11.954a1.833,1.833,0,0,1,0,2.592s-21.5,10.138-27.937,12.8a3.79,3.79,0,0,1-1.622.446h-.047A4.607,4.607,0,0,1,29.987,27.719Z" transform="translate(0 0)" fill="#b4c7d2"/>
  <g id="Grupo_124" data-name="Grupo 124" transform="translate(-967.074 -2872)">
    <path id="Trazado_16" data-name="Trazado 16" d="M1.917-.661v-4A19.933,19.933,0,0,0,4.9-3.005a5.31,5.31,0,0,0,1.966.427,2.138,2.138,0,0,0,1.273-.346,1.07,1.07,0,0,0,.483-.91,1.067,1.067,0,0,0-.338-.806,3.336,3.336,0,0,0-1.16-.612L5.253-5.914A6.11,6.11,0,0,1,2.465-7.678a4.049,4.049,0,0,1-.951-2.683,4.433,4.433,0,0,1,1.531-3.521,6,6,0,0,1,4.077-1.329,10.216,10.216,0,0,1,2.49.33,19.639,19.639,0,0,1,2.925,1.023l-.628,3.529A7.794,7.794,0,0,0,9.8-11.618a5.688,5.688,0,0,0-2.143-.467,1.977,1.977,0,0,0-1.208.346,1.052,1.052,0,0,0-.467.878.969.969,0,0,0,.266.717,3.343,3.343,0,0,0,1.184.572l1.74.628a6.744,6.744,0,0,1,2.925,1.756A4.007,4.007,0,0,1,12.971-4.5,4.8,4.8,0,0,1,11.392-.7,6.272,6.272,0,0,1,7.09.693a10.381,10.381,0,0,1-2.6-.33A11.5,11.5,0,0,1,1.917-.661Zm17.95-7.96,6.3-.193V-9.04a2.424,2.424,0,0,0-.806-1.877,2.9,2.9,0,0,0-2.03-.733,3.365,3.365,0,0,0-2.288.8A3.712,3.712,0,0,0,19.868-8.621ZM29.5-5.188,28.939-.725A14.473,14.473,0,0,1,26.023.322a12.588,12.588,0,0,1-2.9.338,8.2,8.2,0,0,1-5.849-2.087A7.115,7.115,0,0,1,15.05-6.864a7.99,7.99,0,0,1,2.433-5.906A8.091,8.091,0,0,1,23.4-15.179a6.923,6.923,0,0,1,4.89,1.764A5.936,5.936,0,0,1,30.2-8.846q0,.435-.064,1.386l-.016.1-.451.661-9.91.274a3.271,3.271,0,0,0,1.225,2.377,4.28,4.28,0,0,0,2.8.91,8.028,8.028,0,0,0,2.651-.516A15.539,15.539,0,0,0,29.5-5.188Zm12.923-5.64a3.758,3.758,0,0,0-.862-.371,3.064,3.064,0,0,0-.814-.113,3.012,3.012,0,0,0-2.417,1.2,4.612,4.612,0,0,0-.983,3.021,4.569,4.569,0,0,0,.862,2.844,2.565,2.565,0,0,0,2.1,1.136,2.267,2.267,0,0,0,1.023-.274,4.536,4.536,0,0,0,1.088-.806Zm5.06-3.69V-1.354a17.24,17.24,0,0,1-.193,3.005A6.736,6.736,0,0,1,46.664,3.5a6.015,6.015,0,0,1-2.626,2.635,8.97,8.97,0,0,1-4.173.894A14.184,14.184,0,0,1,36.891,6.7a19.83,19.83,0,0,1-3.2-1l-.064-4.028a16.759,16.759,0,0,0,2.933,1.281,8.376,8.376,0,0,0,2.481.411,3.9,3.9,0,0,0,2.626-.806A2.838,2.838,0,0,0,42.6.29V-.693a7.1,7.1,0,0,1-1.724.806,6.212,6.212,0,0,1-1.8.258A6.43,6.43,0,0,1,34.1-1.692a7.715,7.715,0,0,1-1.893-5.43,8.157,8.157,0,0,1,2.143-5.793,7.088,7.088,0,0,1,5.414-2.3A6.389,6.389,0,0,1,41.347-15a12.123,12.123,0,0,1,1.821.645Zm13.2,3.69a3.758,3.758,0,0,0-.862-.371,3.064,3.064,0,0,0-.814-.113,3.012,3.012,0,0,0-2.417,1.2,4.612,4.612,0,0,0-.983,3.021,4.569,4.569,0,0,0,.862,2.844,2.565,2.565,0,0,0,2.1,1.136,2.252,2.252,0,0,0,1.023-.266,4.575,4.575,0,0,0,1.088-.814Zm5.06-3.69v9.072q0,1.708.064,2.868T66-.6L61.311.693,60.86-.693A7.539,7.539,0,0,1,59,.354a5.436,5.436,0,0,1-1.909.338,5.957,5.957,0,0,1-4.713-2.24,8.294,8.294,0,0,1-1.909-5.575,8.15,8.15,0,0,1,2.143-5.8,7.1,7.1,0,0,1,5.414-2.288A6.389,6.389,0,0,1,59.6-15a12.123,12.123,0,0,1,1.821.645ZM74.653,0H69.609V-14.518h4.657v2.433a8.248,8.248,0,0,1,2.465-2.135,5.9,5.9,0,0,1,2.836-.7,4.469,4.469,0,0,1,3.5,1.321,5.593,5.593,0,0,1,1.192,3.867V0H79.245V-8.314a2.705,2.705,0,0,0-.467-1.724,1.674,1.674,0,0,0-1.386-.58,2.449,2.449,0,0,0-2.03.886,4.051,4.051,0,0,0-.709,2.578ZM87.592-19.932A2.675,2.675,0,0,1,88.4-21.9a2.675,2.675,0,0,1,1.966-.806,2.681,2.681,0,0,1,1.974.8,2.681,2.681,0,0,1,.8,1.974,2.728,2.728,0,0,1-.806,1.982,2.648,2.648,0,0,1-1.966.822,2.651,2.651,0,0,1-1.95-.83A2.709,2.709,0,0,1,87.592-19.932ZM92.941,0H87.833V-14.518l5.108-.693ZM94.1,0l5.543-7.154-5.2-7.364h5.9l2.417,3.4,2.626-3.4h4.963l-5.221,6.8L110.6,0h-5.946l-2.626-3.754L99.113,0Z" transform="translate(1038 2909)" fill="#b4c7d2"/>
    <path id="Trazado_17" data-name="Trazado 17" d="M3.473-1.013a1.354,1.354,0,0,0,1.2-.72,3.692,3.692,0,0,0,.446-1.953,3.7,3.7,0,0,0-.446-1.947A1.343,1.343,0,0,0,3.485-6.36,1.337,1.337,0,0,0,2.3-5.643a3.731,3.731,0,0,0-.439,1.956A3.737,3.737,0,0,0,2.3-1.736,1.326,1.326,0,0,0,3.473-1.013ZM3.473.2A2.665,2.665,0,0,1,1.26-.845,4.465,4.465,0,0,1,.439-3.674,4.465,4.465,0,0,1,1.26-6.5,2.665,2.665,0,0,1,3.473-7.55,2.685,2.685,0,0,1,5.7-6.5a4.444,4.444,0,0,1,.827,2.826A4.444,4.444,0,0,1,5.7-.848,2.685,2.685,0,0,1,3.473.2ZM8,0V-7.349H9.314q-.006.415-.037.879T9.192-5.438a4.219,4.219,0,0,1,.842-1.523,1.494,1.494,0,0,1,1.1-.491,1.472,1.472,0,0,1,.327.04,3.657,3.657,0,0,1,.412.125l-.311,1.526A1.919,1.919,0,0,0,11.23-5.9a1.127,1.127,0,0,0-.305-.043,1.283,1.283,0,0,0-1.138.708,3.717,3.717,0,0,0-.424,1.917V0Zm7.141-1.349a1.336,1.336,0,0,0,1.163-.659,3.191,3.191,0,0,0,.436-1.782,3.214,3.214,0,0,0-.43-1.776,1.311,1.311,0,0,0-1.144-.659A1.332,1.332,0,0,0,14-5.569a3.211,3.211,0,0,0-.43,1.779A3.245,3.245,0,0,0,14-2.008,1.309,1.309,0,0,0,15.143-1.349ZM13.629.549a1.514,1.514,0,0,0,.552.6A1.665,1.665,0,0,0,15,1.324a1.488,1.488,0,0,0,1.273-.54A2.807,2.807,0,0,0,16.681-.9q0-.165-.024-.525v-.067a2.31,2.31,0,0,1-.778.952,1.922,1.922,0,0,1-1.1.323,2.24,2.24,0,0,1-1.88-.995,4.291,4.291,0,0,1-.732-2.606A4.341,4.341,0,0,1,12.9-6.461a2.305,2.305,0,0,1,1.944-.992,1.9,1.9,0,0,1,1.224.427,2.889,2.889,0,0,1,.851,1.239,7.838,7.838,0,0,1-.134-.812,6.911,6.911,0,0,1-.043-.751h1.324v6.226A5.478,5.478,0,0,1,17.9.342a2.5,2.5,0,0,1-.528.983,2.644,2.644,0,0,1-1.013.711,3.515,3.515,0,0,1-1.349.253,3.655,3.655,0,0,1-1.694-.345A1.972,1.972,0,0,1,12.378.916ZM22.467-.989a1.324,1.324,0,0,0,1.163-.69,3.453,3.453,0,0,0,.436-1.862,3.449,3.449,0,0,0-.43-1.846,1.3,1.3,0,0,0-1.144-.687,1.326,1.326,0,0,0-1.163.684,3.408,3.408,0,0,0-.436,1.849,3.473,3.473,0,0,0,.433,1.862A1.3,1.3,0,0,0,22.467-.989ZM24.146,0q.018-.421.058-.824t.1-.8a3.17,3.17,0,0,1-.873,1.355A1.887,1.887,0,0,1,22.168.2,2.254,2.254,0,0,1,20.236-.836,4.719,4.719,0,0,1,19.507-3.6a4.706,4.706,0,0,1,.735-2.765A2.256,2.256,0,0,1,22.168-7.41a2.015,2.015,0,0,1,1.2.375,2.556,2.556,0,0,1,.836,1.083,6.612,6.612,0,0,1-.122-.69q-.043-.348-.055-.708h1.361V0ZM31.6,0V-4.578a2.3,2.3,0,0,0-.266-1.248.929.929,0,0,0-.833-.4,1.384,1.384,0,0,0-1.208.714,3.528,3.528,0,0,0-.458,1.923V0H27.478V-7.349h1.233q-.012.494-.052.974t-.095.937a3.337,3.337,0,0,1,.934-1.5,2.106,2.106,0,0,1,1.416-.513,1.831,1.831,0,0,1,1.52.665,2.978,2.978,0,0,1,.531,1.9V0Zm5.115-8.948a.811.811,0,0,1-.293.647,1.134,1.134,0,0,1-.763.25,1.109,1.109,0,0,1-.751-.247.816.816,0,0,1-.287-.65.811.811,0,0,1,.284-.647,1.116,1.116,0,0,1,.754-.244,1.15,1.15,0,0,1,.766.244A.8.8,0,0,1,36.719-8.948ZM34.991,0V-7.111h1.361V0Zm2.472,0,3.363-6.189H37.891v-1.16h5.09L39.618-1.16h3.21V0Zm7.6-4.364H48.5a2.8,2.8,0,0,0-.534-1.547,1.443,1.443,0,0,0-1.175-.54,1.463,1.463,0,0,0-1.187.543A2.778,2.778,0,0,0,45.068-4.364Zm4.4,3.027A3.439,3.439,0,0,1,48.325-.174,2.909,2.909,0,0,1,46.832.2,2.785,2.785,0,0,1,44.54-.83a4.406,4.406,0,0,1-.833-2.844,4.45,4.45,0,0,1,.824-2.832A2.683,2.683,0,0,1,46.753-7.55,2.657,2.657,0,0,1,48.984-6.5a4.692,4.692,0,0,1,.809,2.921v.128H45.081v.159a2.692,2.692,0,0,0,.5,1.685,1.53,1.53,0,0,0,1.263.653,1.628,1.628,0,0,0,.9-.256,2.66,2.66,0,0,0,.757-.818Zm7.538.348a1.324,1.324,0,0,0,1.163-.69,3.453,3.453,0,0,0,.436-1.862,3.449,3.449,0,0,0-.43-1.846,1.3,1.3,0,0,0-1.144-.687,1.326,1.326,0,0,0-1.163.684,3.408,3.408,0,0,0-.436,1.849,3.473,3.473,0,0,0,.433,1.862A1.3,1.3,0,0,0,57.007-.989ZM58.685,0q.018-.421.058-.824t.1-.8a3.17,3.17,0,0,1-.873,1.355A1.887,1.887,0,0,1,56.708.2,2.254,2.254,0,0,1,54.776-.836,4.719,4.719,0,0,1,54.047-3.6a4.706,4.706,0,0,1,.735-2.765A2.256,2.256,0,0,1,56.708-7.41a2.015,2.015,0,0,1,1.2.375,2.556,2.556,0,0,1,.836,1.083,6.612,6.612,0,0,1-.122-.69q-.043-.348-.055-.708H59.93V0Zm7.458,0V-4.578a2.3,2.3,0,0,0-.266-1.248.929.929,0,0,0-.833-.4,1.384,1.384,0,0,0-1.208.714,3.528,3.528,0,0,0-.458,1.923V0H62.018V-7.349h1.233q-.012.494-.052.974t-.095.937a3.337,3.337,0,0,1,.934-1.5,2.106,2.106,0,0,1,1.416-.513,1.831,1.831,0,0,1,1.52.665,2.978,2.978,0,0,1,.531,1.9V0Zm6.073-.989a1.322,1.322,0,0,0,1.166-.69,3.473,3.473,0,0,0,.433-1.862,3.433,3.433,0,0,0-.433-1.843,1.313,1.313,0,0,0-1.154-.69,1.326,1.326,0,0,0-1.163.684A3.408,3.408,0,0,0,70.63-3.54a3.456,3.456,0,0,0,.436,1.859A1.314,1.314,0,0,0,72.217-.989ZM73.883,0q.012-.36.058-.763t.113-.861a3.121,3.121,0,0,1-.873,1.352A1.911,1.911,0,0,1,71.906.2,2.254,2.254,0,0,1,69.974-.836,4.719,4.719,0,0,1,69.244-3.6a4.706,4.706,0,0,1,.735-2.765A2.256,2.256,0,0,1,71.906-7.41a2.015,2.015,0,0,1,1.2.375,2.556,2.556,0,0,1,.836,1.083,4.147,4.147,0,0,1-.125-.693,9.029,9.029,0,0,1-.04-.906V-9.839h1.349V0Zm9.271-1.349a1.336,1.336,0,0,0,1.163-.659,3.191,3.191,0,0,0,.436-1.782,3.214,3.214,0,0,0-.43-1.776,1.311,1.311,0,0,0-1.144-.659,1.332,1.332,0,0,0-1.169.656,3.211,3.211,0,0,0-.43,1.779,3.245,3.245,0,0,0,.427,1.782A1.309,1.309,0,0,0,83.154-1.349ZM81.641.549a1.514,1.514,0,0,0,.552.6,1.665,1.665,0,0,0,.821.177,1.488,1.488,0,0,0,1.273-.54A2.807,2.807,0,0,0,84.692-.9q0-.165-.024-.525v-.067a2.31,2.31,0,0,1-.778.952,1.922,1.922,0,0,1-1.1.323,2.24,2.24,0,0,1-1.88-.995,4.291,4.291,0,0,1-.732-2.606,4.341,4.341,0,0,1,.735-2.646,2.305,2.305,0,0,1,1.944-.992,1.9,1.9,0,0,1,1.224.427,2.889,2.889,0,0,1,.851,1.239A7.837,7.837,0,0,1,84.8-6.6a6.911,6.911,0,0,1-.043-.751h1.324v6.226A5.479,5.479,0,0,1,85.916.342a2.5,2.5,0,0,1-.528.983,2.644,2.644,0,0,1-1.013.711,3.515,3.515,0,0,1-1.349.253,3.656,3.656,0,0,1-1.694-.345A1.972,1.972,0,0,1,80.389.916ZM88.116,0V-7.349h1.312q-.006.415-.037.879t-.085,1.031a4.219,4.219,0,0,1,.842-1.523,1.494,1.494,0,0,1,1.1-.491,1.472,1.472,0,0,1,.327.04,3.657,3.657,0,0,1,.412.125l-.311,1.526a1.919,1.919,0,0,0-.336-.134,1.127,1.127,0,0,0-.305-.043,1.283,1.283,0,0,0-1.138.708,3.717,3.717,0,0,0-.424,1.917V0Zm7.013-1.013a1.354,1.354,0,0,0,1.2-.72,3.692,3.692,0,0,0,.446-1.953,3.7,3.7,0,0,0-.446-1.947,1.343,1.343,0,0,0-1.184-.726,1.337,1.337,0,0,0-1.184.717,3.731,3.731,0,0,0-.439,1.956,3.737,3.737,0,0,0,.439,1.95A1.326,1.326,0,0,0,95.129-1.013Zm0,1.215A2.665,2.665,0,0,1,92.917-.845,4.465,4.465,0,0,1,92.1-3.674,4.465,4.465,0,0,1,92.917-6.5,2.665,2.665,0,0,1,95.129-7.55,2.685,2.685,0,0,1,97.354-6.5a4.444,4.444,0,0,1,.827,2.826,4.444,4.444,0,0,1-.827,2.826A2.685,2.685,0,0,1,95.129.2Zm9.18-7.55,1.349,6.226q.079-.5.165-.928t.171-.787l1.1-4.51h1.245L106.372,0H104.98l-.946-3.925-.006-.006a16.612,16.612,0,0,1-.409-2.167q-.055.476-.153,1.01t-.244,1.138L102.271,0h-1.4L98.9-7.349h1.251l1.434,6.226q.049-.323.131-.732t.223-1.031l1-4.462Z" transform="translate(1040 2927.894)" fill="#b4c7d2"/>
  </g>
</svg>
