<svg xmlns="http://www.w3.org/2000/svg" xmlns:xlink="http://www.w3.org/1999/xlink" width="189.568" height="67.882" viewBox="0 0 189.568 67.882">
  <defs>
    <linearGradient id="linear-gradient" x1="0.361" y1="0.092" x2="0.5" y2="1" gradientUnits="objectBoundingBox">
      <stop offset="0" stop-color="#06f"/>
      <stop offset="1" stop-color="#00c7ff"/>
      <stop offset="1" stop-color="#00cbff"/>
    </linearGradient>
  </defs>
  <path id="Unión_3" data-name="Unión 3" d="M-61.753-4979.8a2.09,2.09,0,0,1-.417-1.217V-5013.4c0-.94.723-1.23,1.656-1.7l28.041-13.333a1.68,1.68,0,0,1,1.656,1.7v32.862c0,.941-.666,1.269-1.656,1.7L-60.127-4979.5a1.754,1.754,0,0,1-.719.188A1.241,1.241,0,0,1-61.753-4979.8Zm-5.594.309-28.565-12.669c-1.022-.435-1.709-.763-1.709-1.7v-32.862a1.706,1.706,0,0,1,1.709-1.7l28.966,13.333c.964.474,1.71.764,1.71,1.7v32.376a2.045,2.045,0,0,1-.431,1.217,1.3,1.3,0,0,1-.938.5A1.858,1.858,0,0,1-67.347-4979.5ZM58.2-4987.744a1.894,1.894,0,0,1-.9-.987l1.2-.352a1.445,1.445,0,0,0,.531.574,1.584,1.584,0,0,0,.788.17,1.427,1.427,0,0,0,1.221-.518,2.7,2.7,0,0,0,.39-1.614c0-.105-.008-.274-.024-.5v-.064a2.213,2.213,0,0,1-.747.915,1.846,1.846,0,0,1-1.056.31,2.15,2.15,0,0,1-1.805-.955,4.12,4.12,0,0,1-.7-2.5,4.171,4.171,0,0,1,.706-2.54,2.214,2.214,0,0,1,1.866-.953,1.829,1.829,0,0,1,1.176.41,2.772,2.772,0,0,1,.817,1.19,7.809,7.809,0,0,1-.129-.779,6.837,6.837,0,0,1-.041-.721H62.76v5.977a5.247,5.247,0,0,1-.156,1.406,2.391,2.391,0,0,1-.507.942,2.52,2.52,0,0,1-.973.683,3.371,3.371,0,0,1-1.295.243A3.52,3.52,0,0,1,58.2-4987.744Zm.651-7.213a3.074,3.074,0,0,0-.413,1.708,3.113,3.113,0,0,0,.41,1.711,1.255,1.255,0,0,0,1.1.633,1.281,1.281,0,0,0,1.116-.633,3.057,3.057,0,0,0,.419-1.711,3.091,3.091,0,0,0-.413-1.705,1.259,1.259,0,0,0-1.1-.632A1.276,1.276,0,0,0,58.855-4994.957Zm-65.941,7.213a1.892,1.892,0,0,1-.906-.987l1.2-.352a1.445,1.445,0,0,0,.531.574,1.588,1.588,0,0,0,.788.17,1.427,1.427,0,0,0,1.221-.518,2.7,2.7,0,0,0,.39-1.614c0-.105-.008-.274-.024-.5v-.064a2.22,2.22,0,0,1-.746.915,1.85,1.85,0,0,1-1.058.31,2.15,2.15,0,0,1-1.805-.955,4.12,4.12,0,0,1-.7-2.5,4.171,4.171,0,0,1,.706-2.54,2.215,2.215,0,0,1,1.867-.953,1.828,1.828,0,0,1,1.174.41,2.772,2.772,0,0,1,.817,1.19,7.809,7.809,0,0,1-.129-.779,6.837,6.837,0,0,1-.041-.721h1.272v5.977a5.247,5.247,0,0,1-.156,1.406,2.375,2.375,0,0,1-.507.942,2.52,2.52,0,0,1-.973.683,3.371,3.371,0,0,1-1.295.243A3.511,3.511,0,0,1-7.086-4987.744Zm.65-7.213a3.085,3.085,0,0,0-.413,1.708,3.113,3.113,0,0,0,.41,1.711,1.256,1.256,0,0,0,1.1.633,1.282,1.282,0,0,0,1.116-.633,3.057,3.057,0,0,0,.419-1.711,3.091,3.091,0,0,0-.413-1.705,1.257,1.257,0,0,0-1.1-.632A1.278,1.278,0,0,0-6.436-4994.957Zm75.762,4.535a4.285,4.285,0,0,1-.789-2.716,4.287,4.287,0,0,1,.789-2.716,2.555,2.555,0,0,1,2.123-1,2.576,2.576,0,0,1,2.136,1.008,4.262,4.262,0,0,1,.794,2.712,4.266,4.266,0,0,1-.794,2.713,2.579,2.579,0,0,1-2.136,1.007A2.555,2.555,0,0,1,69.326-4990.421Zm1-4.606a3.585,3.585,0,0,0-.422,1.878,3.591,3.591,0,0,0,.422,1.873,1.274,1.274,0,0,0,1.125.694,1.3,1.3,0,0,0,1.149-.691,3.547,3.547,0,0,0,.428-1.875,3.552,3.552,0,0,0-.428-1.87,1.289,1.289,0,0,0-1.136-.7A1.284,1.284,0,0,0,70.324-4995.027ZM47.3-4990.413a4.535,4.535,0,0,1-.7-2.654,4.519,4.519,0,0,1,.706-2.655,2.167,2.167,0,0,1,1.848-1,1.935,1.935,0,0,1,1.155.361,2.454,2.454,0,0,1,.8,1.04,3.978,3.978,0,0,1-.12-.665,8.687,8.687,0,0,1-.038-.87v-2.2h1.3v9.446h-1.2q.011-.346.056-.732c.029-.258.066-.533.108-.827a2.989,2.989,0,0,1-.837,1.3,1.835,1.835,0,0,1-1.225.454A2.167,2.167,0,0,1,47.3-4990.413Zm1.049-4.372a3.28,3.28,0,0,0-.418,1.776,3.322,3.322,0,0,0,.418,1.784,1.262,1.262,0,0,0,1.1.665,1.271,1.271,0,0,0,1.12-.661,3.337,3.337,0,0,0,.415-1.788,3.3,3.3,0,0,0-.415-1.77,1.263,1.263,0,0,0-1.108-.663A1.276,1.276,0,0,0,48.348-4994.784Zm-15.638,4.372a4.526,4.526,0,0,1-.7-2.654,4.519,4.519,0,0,1,.707-2.655,2.165,2.165,0,0,1,1.848-1,1.931,1.931,0,0,1,1.154.361,2.466,2.466,0,0,1,.8,1.04,6.531,6.531,0,0,1-.118-.663c-.027-.223-.044-.448-.052-.679h1.306v7.055H36.464q.017-.405.054-.792c.025-.257.058-.513.1-.768a3.033,3.033,0,0,1-.839,1.3,1.8,1.8,0,0,1-1.212.451A2.163,2.163,0,0,1,32.71-4990.413Zm1.049-4.372a3.269,3.269,0,0,0-.419,1.776,3.337,3.337,0,0,0,.417,1.788,1.25,1.25,0,0,0,1.094.661,1.274,1.274,0,0,0,1.117-.661,3.325,3.325,0,0,0,.418-1.788,3.3,3.3,0,0,0-.413-1.772,1.249,1.249,0,0,0-1.1-.66A1.273,1.273,0,0,0,33.759-4994.784Zm-10.875,4.378a4.231,4.231,0,0,1-.8-2.731,4.274,4.274,0,0,1,.79-2.718,2.577,2.577,0,0,1,2.133-1,2.549,2.549,0,0,1,2.141,1.011,4.5,4.5,0,0,1,.777,2.8v.123H23.4v.153a2.58,2.58,0,0,0,.481,1.616,1.468,1.468,0,0,0,1.212.627,1.57,1.57,0,0,0,.868-.246,2.56,2.56,0,0,0,.726-.785l.926.663a3.309,3.309,0,0,1-1.1,1.116,2.792,2.792,0,0,1-1.433.36A2.675,2.675,0,0,1,22.884-4990.406Zm1.025-4.876a2.677,2.677,0,0,0-.518,1.483h3.3a2.684,2.684,0,0,0-.513-1.486,1.383,1.383,0,0,0-1.127-.518A1.407,1.407,0,0,0,23.909-4995.282Zm-24.357,4.87a4.535,4.535,0,0,1-.7-2.654,4.519,4.519,0,0,1,.707-2.655,2.165,2.165,0,0,1,1.848-1,1.931,1.931,0,0,1,1.154.361,2.447,2.447,0,0,1,.8,1.04,6.193,6.193,0,0,1-.117-.663c-.028-.223-.046-.448-.053-.679H4.5v7.055H3.3q.017-.405.056-.792c.025-.257.057-.513.1-.768a3.031,3.031,0,0,1-.837,1.3,1.809,1.809,0,0,1-1.214.451A2.167,2.167,0,0,1-.448-4990.413ZM.6-4994.784a3.28,3.28,0,0,0-.419,1.776,3.337,3.337,0,0,0,.417,1.788,1.252,1.252,0,0,0,1.1.661,1.271,1.271,0,0,0,1.116-.661,3.325,3.325,0,0,0,.419-1.788,3.314,3.314,0,0,0-.413-1.772,1.252,1.252,0,0,0-1.1-.66A1.274,1.274,0,0,0,.6-4994.784Zm-19.265,4.363a4.285,4.285,0,0,1-.789-2.716,4.287,4.287,0,0,1,.789-2.716,2.555,2.555,0,0,1,2.123-1,2.576,2.576,0,0,1,2.136,1.008,4.262,4.262,0,0,1,.794,2.712,4.266,4.266,0,0,1-.794,2.713,2.579,2.579,0,0,1-2.136,1.007A2.555,2.555,0,0,1-18.664-4990.421Zm1-4.606a3.585,3.585,0,0,0-.422,1.878,3.591,3.591,0,0,0,.422,1.873,1.274,1.274,0,0,0,1.125.694,1.3,1.3,0,0,0,1.149-.691,3.547,3.547,0,0,0,.428-1.875,3.552,3.552,0,0,0-.428-1.87,1.289,1.289,0,0,0-1.136-.7A1.284,1.284,0,0,0-17.666-4995.027Zm98.573,5.418L80-4993.377l-.006-.006a16.227,16.227,0,0,1-.393-2.08c-.034.3-.084.628-.146.969s-.141.707-.234,1.093l-.915,3.792H76.963l-1.9-7.055h1.2l1.377,5.977q.048-.312.127-.7t.214-.991l.96-4.283h1.319l1.295,5.977c.051-.32.1-.618.158-.891s.11-.526.165-.756l1.06-4.33h1.2l-1.894,7.055Zm-16.189,0v-7.055h1.259q-.006.4-.035.844c-.019.3-.047.627-.081.989a4.05,4.05,0,0,1,.808-1.462,1.435,1.435,0,0,1,1.06-.471,1.421,1.421,0,0,1,.314.038,3.666,3.666,0,0,1,.4.12l-.3,1.464a1.85,1.85,0,0,0-.322-.128,1.077,1.077,0,0,0-.294-.042,1.229,1.229,0,0,0-1.092.68,3.556,3.556,0,0,0-.408,1.839v3.182Zm-21.094,0V-4994a2.209,2.209,0,0,0-.255-1.2.892.892,0,0,0-.8-.384,1.329,1.329,0,0,0-1.16.685,3.391,3.391,0,0,0-.438,1.846v3.446H39.662v-7.055h1.183q-.011.473-.049.934t-.091.9a3.21,3.21,0,0,1,.9-1.44,2.022,2.022,0,0,1,1.359-.493,1.758,1.758,0,0,1,1.459.638,2.863,2.863,0,0,1,.509,1.823v4.693Zm-27.533,0,3.228-5.941H16.5v-1.113h4.887l-3.229,5.941H21.24v1.114Zm-2.374,0v-6.827h1.307v6.827Zm-3.252,0V-4994a2.209,2.209,0,0,0-.255-1.2.891.891,0,0,0-.8-.384,1.327,1.327,0,0,0-1.16.685,3.379,3.379,0,0,0-.44,1.846v3.446H6.5v-7.055H7.688c-.008.315-.025.627-.051.934s-.056.607-.09.9a3.2,3.2,0,0,1,.9-1.44,2.025,2.025,0,0,1,1.36-.493,1.758,1.758,0,0,1,1.458.638,2.856,2.856,0,0,1,.511,1.823v4.693Zm-22.658,0v-7.055h1.26q-.006.4-.035.844c-.019.3-.047.627-.082.989a4.05,4.05,0,0,1,.809-1.462,1.433,1.433,0,0,1,1.06-.471,1.41,1.41,0,0,1,.313.038,3.677,3.677,0,0,1,.4.12l-.3,1.464a1.86,1.86,0,0,0-.323-.128,1.062,1.062,0,0,0-.293-.042,1.233,1.233,0,0,0-1.093.68,3.57,3.57,0,0,0-.407,1.839v3.182Zm25.834-7.967a.781.781,0,0,1-.275-.623.781.781,0,0,1,.272-.622,1.073,1.073,0,0,1,.723-.234,1.108,1.108,0,0,1,.736.234.774.774,0,0,1,.277.622.779.779,0,0,1-.281.621,1.084,1.084,0,0,1-.732.241A1.067,1.067,0,0,1,13.64-4997.576ZM16-5001.969a20.443,20.443,0,0,1-3.295-1.03l-.067-4.15a17.3,17.3,0,0,0,3.022,1.32,8.655,8.655,0,0,0,2.556.423,4.024,4.024,0,0,0,2.706-.83,2.924,2.924,0,0,0,.963-2.341v-1.014a7.28,7.28,0,0,1-1.776.83,6.392,6.392,0,0,1-1.86.266,6.627,6.627,0,0,1-5.121-2.125,7.955,7.955,0,0,1-1.951-5.6,8.4,8.4,0,0,1,2.208-5.968,7.3,7.3,0,0,1,5.579-2.366,6.625,6.625,0,0,1,1.627.215,12.572,12.572,0,0,1,1.876.665l4.449-.166v13.563a17.753,17.753,0,0,1-.2,3.1,6.963,6.963,0,0,1-.647,1.9,6.192,6.192,0,0,1-2.706,2.713,9.246,9.246,0,0,1-4.3.922A14.692,14.692,0,0,1,16-5001.969Zm1.486-17.324a4.751,4.751,0,0,0-1.012,3.112,4.709,4.709,0,0,0,.888,2.93,2.643,2.643,0,0,0,2.166,1.17,2.348,2.348,0,0,0,1.055-.281,4.675,4.675,0,0,0,1.12-.831v-6.839a3.921,3.921,0,0,0-.888-.382,3.167,3.167,0,0,0-.839-.115A3.1,3.1,0,0,0,17.488-5019.293Zm23.21,9.7a7.734,7.734,0,0,1-1.918,1.08,5.585,5.585,0,0,1-1.967.348,6.136,6.136,0,0,1-4.855-2.307,8.543,8.543,0,0,1-1.967-5.745,8.4,8.4,0,0,1,2.208-5.977,7.313,7.313,0,0,1,5.578-2.357,6.627,6.627,0,0,1,1.628.215,12.622,12.622,0,0,1,1.876.665l4.449-.166v9.346q0,1.759.066,2.955t.2,2.042l-4.831,1.328Zm-4.4-9.7a4.752,4.752,0,0,0-1.013,3.112,4.7,4.7,0,0,0,.889,2.93,2.641,2.641,0,0,0,2.166,1.17,2.324,2.324,0,0,0,1.054-.273,4.718,4.718,0,0,0,1.121-.839v-6.839a3.945,3.945,0,0,0-.888-.382,3.174,3.174,0,0,0-.839-.115A3.1,3.1,0,0,0,36.3-5019.293ZM-17.384-5008.5a11.882,11.882,0,0,1-2.648-1.055v-4.117a20.6,20.6,0,0,0,3.071,1.7,5.49,5.49,0,0,0,2.026.439,2.2,2.2,0,0,0,1.311-.357,1.1,1.1,0,0,0,.5-.937,1.1,1.1,0,0,0-.35-.831,3.469,3.469,0,0,0-1.195-.631l-1.925-.68a6.306,6.306,0,0,1-2.873-1.818,4.173,4.173,0,0,1-.979-2.764,4.57,4.57,0,0,1,1.577-3.628,6.18,6.18,0,0,1,4.2-1.369,10.52,10.52,0,0,1,2.565.341,20.133,20.133,0,0,1,3.012,1.054l-.647,3.636a7.984,7.984,0,0,0-2.175-1.328,5.841,5.841,0,0,0-2.208-.481,2.046,2.046,0,0,0-1.245.356,1.086,1.086,0,0,0-.481.906,1,1,0,0,0,.275.739,3.453,3.453,0,0,0,1.22.589l1.792.647a6.93,6.93,0,0,1,3.014,1.81,4.126,4.126,0,0,1,.9,2.771,4.951,4.951,0,0,1-1.627,3.911,6.461,6.461,0,0,1-4.432,1.435A10.713,10.713,0,0,1-17.384-5008.5Zm13.173-1.843a7.333,7.333,0,0,1-2.29-5.6,8.228,8.228,0,0,1,2.507-6.084,8.331,8.331,0,0,1,6.092-2.483,7.136,7.136,0,0,1,5.039,1.818A6.12,6.12,0,0,1,9.1-5017.99q0,.448-.066,1.427l-.018.1-.464.68-10.21.283a3.37,3.37,0,0,0,1.262,2.449,4.411,4.411,0,0,0,2.888.938,8.3,8.3,0,0,0,2.731-.531,16.042,16.042,0,0,0,3.162-1.577l-.58,4.6a15,15,0,0,1-3,1.079,13,13,0,0,1-2.988.349A8.455,8.455,0,0,1-4.211-5010.345Zm3.885-9.712a3.83,3.83,0,0,0-1.212,2.3l6.492-.2v-.232a2.5,2.5,0,0,0-.831-1.934,2.986,2.986,0,0,0-2.091-.756A3.469,3.469,0,0,0-.326-5020.057Zm86.146,11.182-2.706-3.869-3,3.869H74.946l5.711-7.372-5.362-7.586h6.077l2.489,3.5,2.707-3.5H91.68l-5.379,7.005,5.645,7.953Zm-17.332,0v-14.958l5.262-.714v15.672Zm-8.85,0v-8.567a2.783,2.783,0,0,0-.481-1.776,1.722,1.722,0,0,0-1.428-.6,2.52,2.52,0,0,0-2.091.913,4.169,4.169,0,0,0-.731,2.656v7.372h-5.2v-14.958h4.8v2.507a8.489,8.489,0,0,1,2.54-2.2,6.077,6.077,0,0,1,2.921-.722,4.6,4.6,0,0,1,3.6,1.362A5.758,5.758,0,0,1,64.8-5018.9v10.028Zm-125.291-8.858c-6.89-2.836-30.991-13.51-30.991-13.51a1.943,1.943,0,0,1,0-2.754l29.885-12.749a7.406,7.406,0,0,1,5.135.044c1.039.45,29.423,12.7,29.423,12.7a1.943,1.943,0,0,1,0,2.754s-22.919,10.772-29.784,13.6a4.035,4.035,0,0,1-1.729.474h-.045A4.912,4.912,0,0,1-65.652-5017.734Zm134.737-9.644a2.8,2.8,0,0,1-.846-2.034,2.756,2.756,0,0,1,.83-2.026,2.76,2.76,0,0,1,2.026-.83,2.761,2.761,0,0,1,2.034.822,2.76,2.76,0,0,1,.821,2.033,2.81,2.81,0,0,1-.83,2.042,2.728,2.728,0,0,1-2.026.847A2.739,2.739,0,0,1,69.085-5027.378Z" transform="translate(97.621 5047.189)" fill="url(#linear-gradient)"/>
</svg>
