<svg id="trash" xmlns="http://www.w3.org/2000/svg" width="18.375" height="21.438" viewBox="0 0 18.375 21.438">
  <path id="Trazado_1" data-name="Trazado 1" d="M18.836,4.5H15.008a.378.378,0,0,0-.383.383V6.032h4.594V4.883a.378.378,0,0,0-.383-.383Z" transform="translate(-14.625 -2.969)" fill="none"/>
  <path id="Trazado_2" data-name="Trazado 2" d="M22.11,5.313H17.516V4.164A1.914,1.914,0,0,0,15.6,2.25H11.773A1.914,1.914,0,0,0,9.859,4.164V5.313H5.266a.766.766,0,0,0,0,1.531h.813l.909,14.591a2.308,2.308,0,0,0,2.3,2.253H18.09a2.3,2.3,0,0,0,2.3-2.249L21.3,6.845h.813a.766.766,0,0,0,0-1.531ZM10.652,20.625h-.027a.766.766,0,0,1-.766-.738L9.476,9.168a.766.766,0,1,1,1.531-.054l.383,10.719a.766.766,0,0,1-.738.793Zm3.8-.766a.766.766,0,0,1-1.531,0V9.141a.766.766,0,1,1,1.531,0ZM15.985,5.313H11.391V4.164a.378.378,0,0,1,.383-.383H15.6a.378.378,0,0,1,.383.383Zm1.531,14.574a.766.766,0,0,1-.766.738h-.028a.766.766,0,0,1-.738-.793l.383-10.719a.766.766,0,1,1,1.531.054Z" transform="translate(-4.5 -2.25)" fill="#a4a5a6"/>
</svg>
