<svg id="warning" xmlns="http://www.w3.org/2000/svg" width="20.529" height="20.529" viewBox="0 0 20.529 20.529">
  <path id="Trazado_7" data-name="Trazado 7" d="M12.514,2.25A10.264,10.264,0,1,0,22.779,12.514,10.264,10.264,0,0,0,12.514,2.25Zm0,19.062a8.8,8.8,0,1,1,8.8-8.8A8.8,8.8,0,0,1,12.514,21.312Z" transform="translate(-2.25 -2.25)" fill="#a4a5a6"/>
  <path id="Trazado_8" data-name="Trazado 8" d="M16.875,9h1.466v8.065H16.875Z" transform="translate(-7.344 -5.611)" fill="#a4a5a6"/>
  <path id="Trazado_9" data-name="Trazado 9" d="M17.412,24.75a1.1,1.1,0,1,0,1.1,1.1A1.1,1.1,0,0,0,17.412,24.75Z" transform="translate(-7.148 -11.097)" fill="#a4a5a6"/>
</svg>
